<svg width="34" height="47" xmlns="http://www.w3.org/2000/svg" viewBox="0 0 34 47"><path fill="#f6f6f6" d="M17 0C7.6 0 0 7.6 0 17s12.1 25.1 17 30c4.5-4.5 17-20.6 17-30 0-9.4-7.6-17-17-17zm0 23c-3 0-5.5-2.5-5.5-5.5S14 12 17 12s5.5 2.5 5.5 5.5S20 23 17 23z"/><linearGradient id="a" gradientUnits="userSpaceOnUse" x1="8.5" x2="8.5" y2="47"><stop offset="0" stop-color="#f6f6f6"/><stop offset="1" stop-color="#d0d0d0"/></linearGradient><path fill="url(#a)" d="M11.5 17.5c0-3 2.5-5.5 5.5-5.5V0C7.6 0 0 7.6 0 17s12.1 25.1 17 30V23c-3 0-5.5-2.5-5.5-5.5z"/><linearGradient id="b" gradientUnits="userSpaceOnUse" x1="17" y1="28" x2="17" y2="7"><stop offset="0" stop-color="#f6f6f6"/><stop offset="1" stop-color="#d0d0d0"/></linearGradient><path fill="url(#b)" d="M17 7C11.2 7 6.5 11.7 6.5 17.5S11.2 28 17 28s10.5-4.7 10.5-10.5S22.8 7 17 7zm0 16c-3 0-5.5-2.5-5.5-5.5S14 12 17 12s5.5 2.5 5.5 5.5S20 23 17 23z"/></svg>