<svg xmlns="http://www.w3.org/2000/svg" width="14" height="14" viewBox="0 0 14 14"><path d="M10.922 14.004c-.167 0-.33-.01-.487-.033-.156-.02-.338-.06-.543-.117-.213-.06-.37-.108-.474-.145-.108-.038-.304-.11-.586-.216-.297-.112-.48-.178-.546-.2-.65-.233-1.245-.515-1.76-.835-.876-.54-1.797-1.293-2.74-2.235-.94-.94-1.692-1.863-2.232-2.737C1.232 6.968.95 6.372.714 5.71.694 5.658.63 5.476.518 5.18.412 4.896.34 4.7.3 4.59.265 4.49.218 4.33.157 4.118.1 3.914.06 3.732.038 3.575c-.02-.158-.032-.322-.032-.488 0-.562.16-1.144.48-1.73C.94.533 1.242.34 1.35.293c.155-.068.368-.133.644-.196.32-.074.512-.092.618-.093.053.07.152.225.31.54.093.163.198.352.33.597.138.253.264.482.38.688.117.208.23.405.34.588l.016.025.016.022c.02.027.08.11.177.252.11.157.162.252.187.305l.014.035c-.017.03-.058.09-.145.183-.182.19-.382.37-.595.528-.26.194-.503.402-.723.617-.203.2-.472.51-.472.89 0 .134.03.276.088.436.045.122.084.214.115.276.03.06.087.16.175.302l.11.18c.566 1.022 1.226 1.912 1.96 2.647.735.735 1.626 1.395 2.647 1.96l.18.11c.143.09.244.147.302.176.063.033.155.072.277.116.158.06.3.09.433.09.383 0 .692-.27.89-.474.22-.222.427-.465.62-.723.158-.214.336-.414.526-.595.09-.087.15-.13.183-.147.01.002.02.007.034.014.052.025.148.078.306.187.14.096.224.154.25.174l.024.018.024.014c.185.11.38.224.59.34.205.116.435.243.687.38.246.133.434.238.567.315.338.17.498.274.57.327 0 .107-.02.297-.093.62-.062.274-.127.488-.19.634-.05.117-.245.418-1.07.876-.584.316-1.166.478-1.728.478z" class="cls-1"/></svg>