<svg xmlns="http://www.w3.org/2000/svg" viewBox="0 0 213.3 54.9" enable-background="new 0 0 213.3 54.9"><path class="st0" d="M199.7 23.5c1 0 2 .3 2.8.8l.9-2.4c-1-.5-2.4-.8-3.7-.8-3.7 0-6.1 2.3-6.1 5.9 0 3.8 2.4 5.9 6 5.9 1.3 0 2.8-.3 3.7-.8l-.6-2.5c-.8.6-1.9.9-3 .9-2 0-3.2-1.4-3.2-3.5 0-2.2 1.2-3.5 3.2-3.5zm-90.8 1.4c0-2.2-1.6-3.6-4.6-3.6h-4.5v11.3h2.9v-3.7l1.3-.1 2.3 3.8h3.2l-2.9-4.4c1.5-.6 2.3-1.8 2.3-3.3zm-4.8 1.9h-1.4v-3.2h1.2c1.4 0 2.1.5 2.1 1.5 0 1.1-.7 1.6-1.9 1.7zm81.6-5.5l-4 11.3h2.8l.8-2.4h4.2l.8 2.4h2.8l-3.9-11.3h-3.5zm.3 6.7l1.5-4.4 1.4 4.4H186zm-9-6.7h-4.2v11.3h2.9v-3.3h1.1c3.2 0 5-1.4 5-4.1 0-2.3-1.6-3.9-4.8-3.9zm-.2 5.8h-1.2v-3.5h1.2c1.4 0 2.2.6 2.2 1.7 0 1.2-.7 1.8-2.2 1.8zm36.5-3.5v-2.3h-8.2v11.3h8.2v-2.3h-5.4v-2.2h4.4v-2.3h-4.4v-2.2h5.4zm-102.3 9h8.2v-2.3h-5.4v-2.2h4.4v-2.3h-4.4v-2.2h5.4v-2.3H111v11.3zm56.4-6.8c-1.4-.4-2.4-.7-2.4-1.4 0-.6.5-1 1.5-1 1.1 0 2.5.4 3.6 1l.6-2.4c-1.1-.6-2.4-1-4.2-1-2.8 0-4.3 1.4-4.3 3.5 0 2.3 2 3 3.6 3.5 1.5.4 2.3.7 2.3 1.4s-.7 1.1-1.7 1.1c-1.4 0-2.7-.4-3.9-1l-.5 2.4c1 .6 2.7 1 4.3 1 3 0 4.6-1.5 4.6-3.7 0-2.1-1.8-2.9-3.5-3.4zm-11.1 0l-2.3-4.4h-3l3.9 7v4.3h2.8v-4.3l3.9-7h-3l-2.3 4.4zm-32-4.5l-4 11.3h2.8l.8-2.4h4.2l.8 2.4h2.8l-3.9-11.3h-3.5zm.2 6.7l1.5-4.4 1.4 4.4h-2.9zm15.5-4.3h3.6v8.9h2.9v-8.9h3.6v-2.4h-10v2.4zm-4.1-2.4H133v11.3h7.6v-2.4h-4.7v-8.9zM0 27.4l42.4 27.4 42.4-27.4L42.4 0 0 27.4zm42.4 21.9L8.6 27.4 42.4 5.6l33.8 21.9-33.8 21.8zm.8-13.8c-1.2-.3-2.1-.6-2.1-1.2 0-.5.4-.8 1.3-.8 1 0 2.2.4 3.2.9l.5-2.1c-1-.5-2.2-.9-3.7-.9-2.5 0-3.8 1.2-3.8 3.1 0 2 1.8 2.7 3.2 3.1 1.3.4 2 .6 2 1.3 0 .6-.6.9-1.5.9-1.2 0-2.4-.4-3.4-.9l-.5 2.1c.9.5 2.4.9 3.9.9 2.6 0 4.1-1.3 4.1-3.2s-1.7-2.8-3.2-3.2zm-4.7-13.2H41V19l1.2-.1 2 3.4h2.9l-2.6-4c1.3-.5 2-1.5 2-2.9 0-1.9-1.4-3.2-4-3.2h-4v10.1zm2.5-7.9h1.1c1.3 0 1.9.4 1.9 1.3 0 1-.6 1.4-1.7 1.5H41v-2.8zm-13.5 14h29.9v-2H27.5v2z"/></svg>