<svg xmlns="http://www.w3.org/2000/svg" viewBox="0 0 40 40" enable-background="new 0 0 40 40"><path d="M22.2 24.9c-.4-.3-.9-.6-1.3-.8-.5-.2-.9-.4-1.3-.7-.4-.2-.7-.5-1-.8-.3-.3-.4-.7-.4-1.2 0-.6.2-1 .5-1.4.4-.3.8-.5 1.4-.5.5 0 1 .1 1.3.3s.7.5 1.1.8l.9-1c-.4-.4-.5-.7-1-1-.4-.3-1.4-.4-1.4-.5V16h-2v2.2c0 .1-1.4.5-1.9 1.1-.5.6-.7 1.3-.7 2.2 0 .6.2 1.2.5 1.6.3.4.6.8 1 1.1.4.3.9.5 1.3.8.5.2.9.5 1.3.7s.7.6 1 .9c.3.3.4.8.4 1.3 0 .6-.2 1.1-.5 1.5-.4.4-.9.6-1.6.6-.6 0-1.2-.1-1.7-.4-.5-.3-1-.6-1.4-.9l-.7 1c.4.4.7.7 1.3 1s1.6.5 1.6.5V33h2v-1.8c1-.1 1.5-.5 2-1.1.5-.6.7-1.4.7-2.3 0-.7-.2-1.3-.5-1.7-.1-.6-.5-.9-.9-1.2zm8.6-8.5l-9.7-6.8L28.4 1H11.6l7.3 8.6-9.7 6.8-4.3 14.2L8.7 39h22.6l3.8-8.4-4.3-14.2zM15.9 3h8.2L20 7.8 15.9 3zM30 37H10l-2.9-6.5L11 17.6l9.1-6.4 9.1 6.4 3.9 12.9L30 37z"/></svg>