<svg viewBox="0 0 40 40" xmlns="http://www.w3.org/2000/svg"><path d="M27.3 22.9L25 25.1c.3-3.1-.6-6.2-2.6-8.7-2.4-3.1-6-5-9.8-5-.6 0-1 .4-1 1s.4 1 1 1c3.1 0 6.2 1.6 8.2 4.2 1.7 2.2 2.4 4.9 2.1 7.5l-2.3-2.3c-.4-.4-1-.4-1.4 0-.4.4-.4 1 0 1.4l4 3.9c.2.2.4.3.7.3s.5-.1.7-.3l4-3.9c.4-.4.4-1 0-1.4-.3-.3-.9-.3-1.3.1zM40 20C40 9 31 0 20 0 8.9 0 0 9 0 20s8.9 20 20 20c4 0 7.7-1.2 10.8-3.1 3.7 1 8.2 2.1 8.2 2.1s-1-4-2.1-8.3C38.8 27.6 40 24 40 20zm-8.7 14.9c-.2 0-.4-.1-.5-.1-.4 0-.8.1-1.1.3C26.8 37 23.4 38 20 38c-9.9 0-18-8.1-18-18S10.1 2 20 2s18 8.1 18 18c0 3.4-1 6.8-2.8 9.7-.3.5-.4 1.1-.2 1.6.5 1.8.9 3.5 1.3 5-1.6-.4-3.4-.9-5-1.4z"/></svg>