<svg width="0" height="0" style="position:absolute"><symbol viewBox="0 0 264 88" id="default-skin"><g fill="none" fill-rule="evenodd"><path d="M67.002 59.5v3.768c-6.307.84-9.184 5.75-10.002 9.732 2.22-2.83 5.564-5.098 10.002-5.098V71.5L73 65.585 67.002 59.5zM13 29v-5h2v3h3v2h-5zm0-14h5v2h-3v3h-2v-5zm18 0v5h-2v-3h-3v-2h5zm0 14h-5v-2h3v-3h2v5zm31-5v5h-2v-3h-3v-2h5zm0-4h-5v-2h3v-3h2v5zm8 0v-5h2v3h3v2h-5zm0 4h5v2h-3v3h-2v-5zM20.586 66l-5.656-5.656 1.414-1.414L22 64.586l5.656-5.656 1.414 1.414L23.414 66l5.656 5.656-1.414 1.414L22 67.414l-5.656 5.656-1.414-1.414L20.586 66zm91.2-.97L110 63.5l3-3.5h-10v-2h10l-3-3.5 1.785-1.468L117 59l-5.215 6.03zm40.43 0L154 63.5l-3-3.5h10v-2h-10l3-3.5-1.785-1.468L147 59l5.215 6.03zm8.74-36.487l-3.25-3.25-1.412 1.414 3.25 3.25z" fill="#fff"/><path d="M152.5 27c3.038 0 5.5-2.462 5.5-5.5s-2.462-5.5-5.5-5.5-5.5 2.462-5.5 5.5 2.462 5.5 5.5 5.5z" stroke="#fff" stroke-width="1.5"/><path fill="#fff" d="M150 21h5v1h-5zM116.957 28.543l-1.414 1.414-3.25-3.25 1.414-1.414 3.25 3.25z"/><path d="M108.5 27c3.038 0 5.5-2.462 5.5-5.5s-2.462-5.5-5.5-5.5-5.5 2.462-5.5 5.5 2.462 5.5 5.5 5.5z" stroke="#fff" stroke-width="1.5"/><path fill="#fff" d="M106 21h5v1h-5z"/><path fill="#fff" d="M109.043 19.008l-.085 5-1-.017.085-5z"/></g></symbol><symbol viewBox="0 0 40 40" id="icon-agency"><path d="M21 9h-2v4h2V9zm4 0h-2v4h2V9zm-4 6h-2v4h2v-4zm4 0h-2v4h2v-4zm-4 6h-2v4h2v-4zm4 0h-2v4h2v-4zm-4 6h-2v4h2v-4zm9-11V4H14v15.2L0 22.8V36h40V16H30zM14 34H2v-9.6l12-3.1V34zm14 0H16V6h12v28zm10 0h-8V18h8v16zm-3-13h-2v4h2v-4zm0 6h-2v4h2v-4zm-10 0h-2v4h2v-4zM7 27H5v4h2v-4zm4 0H9v4h2v-4z"/></symbol><symbol viewBox="0 0 26 27" id="icon-area"><path d="M24 2v20h-8v-3H6v6H2V9h4v4h15V2h3m2-2h-7v11H8V7H0v20h8v-6h6v3h12V0z"/></symbol><symbol viewBox="0 0 20 20" id="icon-arrow-end"><path clip-rule="evenodd" fill="none" d="M.4 5.9l15.8-4.5 1.6 1.2 1.1 17"/></symbol><symbol preserveAspectRatio="xMidYMid" viewBox="0 0 21 40" id="icon-arrow-left"><path d="M20 0L0 19.997l20 20"/></symbol><symbol preserveAspectRatio="xMidYMid" viewBox="0 0 21 40" id="icon-arrow-right"><path d="M1 0l20 19.998-20 20"/></symbol><symbol viewBox="0 0 186 186" id="icon-avatar"><path d="M161.1 140.4c-26.5-6.1-51.2-11.5-39.3-34.1C158.2 37.6 131.4.8 93 .8 53.8.8 27.7 39 64.2 106.3c12.3 22.7-13.3 28.1-39.3 34.1C-1.6 146.6.4 160.6.4 186h185.1c.1-25.4 2.1-39.4-24.4-45.6z"/></symbol><symbol viewBox="0 0 26.8 20" id="icon-bathrooms"><path d="M5 10V2h5v2H9v3h4V4h-1V0H3v10H0v10h20.6l6.3-10H5zm14.4 8H2v-6h21.2l-3.8 6z"/></symbol><symbol viewBox="0 0 26 17" id="icon-bedrooms"><path d="M26 7h-3V0H3v7H0v8h2v2h2v-2h18v2h2v-2h2V7zM5 2h16v5h-2V5h-5v2h-2V5H7v2H5V2zm19 11H2V9h22v4z"/></symbol><symbol viewBox="0 0 18 18" id="icon-captions-off"><path d="M1 2c-.552 0-1 .448-1 1v12c0 .552.448 1 1 1h16c.552 0 1-.448 1-1V3c0-.552-.448-1-1-1H1zm1 12V4h14v10H2z"/></symbol><symbol viewBox="0 0 18 18" id="icon-captions-on"><path d="M1 2c-.552 0-1 .448-1 1v12c0 .552.448 1 1 1h16c.552 0 1-.448 1-1V3c0-.552-.448-1-1-1H1zm1 12V4h14v10H2z"/><path d="M3 11h3v2H3zm9 0h3v2h-3zm-5 0h4v2H7z"/></symbol><symbol viewBox="-618.5 373.5 55 55" id="icon-comfort"><path d="M-591 388.5c-6.6 0-12 5.4-12 12s5.4 12 12 12 12-5.4 12-12-5.4-12-12-12zm0 22c-5.5 0-10-4.5-10-10s4.5-10 10-10 10 4.5 10 10-4.5 10-10 10zm11.7-20.2c.3 0 .5-.1.7-.3l4.6-4.6c.4-.4.4-1 0-1.4s-1-.4-1.4 0l-4.6 4.6c-.4.4-.4 1 0 1.4.2.2.4.3.7.3zm11.3 9.7h-6.5c-.6 0-1 .4-1 1s.4 1 1 1h6.5c.6 0 1-.4 1-1s-.4-1-1-1zm-10.6 12c-.4-.4-1-.4-1.4 0s-.4 1 0 1.4l4.6 4.6c.2.2.5.3.7.3s.5-.1.7-.3c.4-.4.4-1 0-1.4l-4.6-4.6zm-12.4 4.5c-.6 0-1 .4-1 1v6.5c0 .6.4 1 1 1s1-.4 1-1v-6.5c0-.5-.4-1-1-1zm-12.4-4.5l-4.6 4.6c-.4.4-.4 1 0 1.4.2.2.5.3.7.3s.5-.1.7-.3l4.6-4.6c.4-.4.4-1 0-1.4s-1-.4-1.4 0zm-3.1-11c0-.6-.4-1-1-1h-6.5c-.6 0-1 .4-1 1s.4 1 1 1h6.5c.5 0 1-.4 1-1zm3.1-11c.2.2.5.3.7.3s.5-.1.7-.3c.4-.4.4-1 0-1.4l-4.6-4.6c-.3-.4-1-.4-1.4 0s-.4 1 0 1.4l4.6 4.6zm12.4-4.5c.6 0 1-.4 1-1V378c0-.6-.4-1-1-1s-1 .4-1 1v6.5c0 .5.4 1 1 1z"/></symbol><symbol viewBox="0 0 40 40" id="icon-customers"><path d="M32.7 24l-.1.8s-.3 1.7-3.2 1.7c-2.8 0-3.2-1.5-3.2-1.7l-.3-.8H23v-5h-6.3l-.2.7c0 .1-.8 2.7-4.4 2.7s-4.3-2.6-4.3-2.7l-.1-.7H2v20h36V24h-5.3zM21 37H4V21h2.2c.7 1 2.5 3.4 6 3.4s5.3-2.4 6-3.4H21v16zm15 0H23V26h1.4c.6 1 2 2.5 4.9 2.5 2.9 0 4.3-1.5 4.9-2.5H36v11zm-6.7-14.8c3.3 0 6-2.7 6-6s-2.7-6-6-6-6 2.7-6 6 2.7 6 6 6zm0-10c2.2 0 4 1.8 4 4s-1.8 4-4 4-4-1.8-4-4 1.8-4 4-4zM12.2 17c4.4 0 8-3.6 8-8s-3.6-8-8-8-8 3.6-8 8 3.6 8 8 8zm0-14c3.3 0 6 2.7 6 6s-2.7 6-6 6-6-2.7-6-6 2.7-6 6-6z"/></symbol><symbol viewBox="0 0 28 35" id="icon-doc"><path d="M7 25h14v-2H7v2zm0-5h14v-2H7v2zm0-5h14v-2H7v2zm21-5.8v-.9L19.9 0H2.5C1.1 0 0 1.2 0 2.6v29.8C0 33.8 1.1 35 2.5 35h22.9c1.4 0 2.5-1.2 2.5-2.6V9.2h.1zm-2 23.2c0 .3-.2.6-.5.6h-23c-.3 0-.5-.3-.5-.6V2.6c0-.3.2-.6.5-.6H19v7.2h7v23.2z"/></symbol><symbol viewBox="0 0 14 14" id="icon-earth"><path d="M12.5 7c0-3-2.5-5.5-5.5-5.5-2.8 0-5.1 2.1-5.4 4.7v1c.1 2.9 2.4 5.2 5.3 5.3h.6c2.8-.2 5-2.6 5-5.5zM7.1 2.7C7.7 3.1 8.6 4 8.8 6H5.4c.3-2 1.2-2.9 1.7-3.3zM8.9 7c0 3-1.1 3.9-1.7 4.4v-.1C6.5 10.8 5.4 10 5.4 7h3.5zm-.1 3.9C9.4 10 9.9 9 9.9 7h1.6c-.1 2-1.2 3.2-2.7 3.9zM11.4 6H9.8C9.6 5 9 3.2 8.4 2.5c1.5.5 2.7 2.5 3 3.5zM6 2.4C5.3 3.1 4.6 4 4.4 6H2.6C2.9 4 4.2 2.8 6 2.4zM2.5 7h1.9c0 2 .5 3.1 1.1 4-1.7-.6-2.9-2-3-4z"/></symbol><symbol viewBox="-632.3 373.3 55 55" id="icon-easy"><path d="M-602 402.9c-1.5 1.7-3.7 2.7-6 2.7-.6 0-1 .4-1 1s.4 1 1 1c2.9 0 5.6-1.2 7.5-3.4.4-.4.3-1-.1-1.4-.4-.3-1.1-.3-1.4.1zm14.1 13.4l-9.6-9.6c2.1-2.5 3.4-5.7 3.4-9.2 0-7.7-6.3-14-14-14s-13.9 6.4-13.9 14.1c0 7.7 6.3 14 14 14 3.5 0 6.7-1.3 9.2-3.4l9.6 9.6c.2.2.5.3.7.3s.5-.1.7-.3c.3-.4.3-1.1-.1-1.5zm-20.1-6.7c-6.6 0-12-5.4-12-12s5.4-12 12-12 12 5.4 12 12-5.4 12-12 12z"/></symbol><symbol viewBox="0 0 18 18" id="icon-enter-fullscreen"><path d="M6.425 10.165l-2.57 2.57.018-1.847c-.003-.552-.45-1-1.002-1.002-.55-.003-.993.442-.99.992l-.023 4.22c0 .264.106.518.295.707.01.007.017.016.026.023.008.007.015.017.023.025.188.188.443.294.707.295l4.22-.023c.55.002.994-.442.992-.992-.004-.55-.45-1-1.003-1.002l-1.847.018 2.568-2.57c.387-.386.387-1.012 0-1.4l-.012-.012c-.387-.386-1.014-.386-1.4 0zm7.73-4.9l-.018 1.847c.003.552.45 1 1.002 1.002.55.003.993-.442.99-.992l.024-4.22c-.002-.264-.107-.518-.296-.707-.01-.007-.017-.016-.026-.023-.008-.007-.015-.017-.023-.025-.188-.188-.443-.294-.707-.295l-4.22.023c-.55-.002-.994.442-.99.992 0 .55.45 1 1 1.002l1.847-.018-2.568 2.57c-.387.386-.387 1.012 0 1.4.4.398 1.026.398 1.413.012l2.57-2.57z"/></symbol><symbol viewBox="0 0 40 40" id="icon-error"><path d="M27.3 22.9L25 25.1c.3-3.1-.6-6.2-2.6-8.7-2.4-3.1-6-5-9.8-5-.6 0-1 .4-1 1s.4 1 1 1c3.1 0 6.2 1.6 8.2 4.2 1.7 2.2 2.4 4.9 2.1 7.5l-2.3-2.3c-.4-.4-1-.4-1.4 0-.4.4-.4 1 0 1.4l4 3.9c.2.2.4.3.7.3s.5-.1.7-.3l4-3.9c.4-.4.4-1 0-1.4-.3-.3-.9-.3-1.3.1zM40 20C40 9 31 0 20 0 8.9 0 0 9 0 20s8.9 20 20 20c4 0 7.7-1.2 10.8-3.1 3.7 1 8.2 2.1 8.2 2.1s-1-4-2.1-8.3C38.8 27.6 40 24 40 20zm-8.7 14.9c-.2 0-.4-.1-.5-.1-.4 0-.8.1-1.1.3C26.8 37 23.4 38 20 38c-9.9 0-18-8.1-18-18S10.1 2 20 2s18 8.1 18 18c0 3.4-1 6.8-2.8 9.7-.3.5-.4 1.1-.2 1.6.5 1.8.9 3.5 1.3 5-1.6-.4-3.4-.9-5-1.4z"/></symbol><symbol viewBox="0 0 18 18" id="icon-exit-fullscreen"><path d="M14.425 2.165l-2.57 2.57.018-1.847c-.003-.552-.45-1-1.002-1.002-.55-.003-.993.442-.99.992l-.023 4.22c0 .264.106.518.295.707.01.007.017.016.026.023.008.007.015.017.023.025.188.188.443.294.707.295l4.22-.023c.55.002.994-.442.992-.992-.004-.55-.45-1-1.003-1.002l-1.847.018 2.568-2.57c.387-.386.387-1.012 0-1.4l-.012-.012c-.387-.386-1.014-.386-1.4 0zm-8.27 11.1l-.018 1.847c.003.552.45 1 1.002 1.002.55.003.993-.442.99-.992l.024-4.22c-.002-.264-.107-.518-.296-.707-.01-.007-.017-.016-.026-.023-.008-.007-.015-.017-.023-.025-.188-.188-.443-.294-.707-.295l-4.22.023c-.55-.002-.994.442-.99.992 0 .55.45 1 1 1.002l1.847-.018-2.568 2.57c-.387.386-.387 1.012 0 1.4.4.398 1.026.398 1.413.012l2.57-2.57z"/></symbol><symbol viewBox="0 0 18 18" id="icon-fast-forward"><path d="M17.57 8.246L7 2c-.552 0-1 .448-1 1v1.954L1 2c-.552 0-1 .448-1 1v12c0 .552.448 1 1 1l5-2.955V15c0 .552.448 1 1 1l10.57-6.246c.266-.158.43-.444.43-.754s-.164-.597-.43-.754zM6 10.722l-4 2.364V4.914l4 2.364v3.444zm2 2.364V4.914L14.915 9 8 13.086z"/></symbol><symbol viewBox="0 0 25 20.7" id="icon-garage"><path d="M12.5 0L0 7.5v13.2h25V7.5L12.5 0zm0 2.3l8.9 5.3H3.6l8.9-5.3zM12 18.7H2v-10h10v10zm11 0H13v-10h10v10zm-12-5.5h-1v2h1v-2zm4 0h-1v2h1v-2z"/></symbol><symbol viewBox="19.5 264.5 27 33" id="icon-geolocation"><path d="M33 264.5c-7.5 0-13.5 6-13.5 13.5 0 7.6 6.6 12.6 13.5 19.5 6.9-6.9 13.5-11.9 13.5-19.5 0-7.5-6-13.5-13.5-13.5zm1.6 22.9v-4.6h-3.2v4.6c-4.2-.7-7.5-4-8.2-8.2h4.6V276h-4.6c.7-4.2 4-7.5 8.2-8.2v4.6h3.2v-4.6c4.2.7 7.5 4 8.2 8.2h-4.6v3.2h4.6c-.7 4.2-4 7.5-8.2 8.2z"/></symbol><symbol viewBox="-632.5 373.5 55 55" id="icon-good-sales"><path d="M-598 397v6h-8v5h-8v5h-8v10h34v-26h-10zm-16 24h-6v-6h6v6zm8 0h-6v-11h6v11zm8 0h-6v-16h6v16zm8 0h-6v-22h6v22zm-19.9-29.7l4.9 5.1 14-14v2.6h2l-.1-6h-5.8v2h2.4l-12.5 12.5-4.9-5.1-10.8 10.9 1.4 1.4 9.4-9.4z"/></symbol><symbol viewBox="0 0 50 50" id="icon-info"><path d="M25 32.3c-2.4 0-4.3 1.9-4.3 4.3s1.9 4.3 4.3 4.3 4.3-1.9 4.3-4.3-1.9-4.3-4.3-4.3zm21.6-21.1l-7.8-7.8c-2-1.9-5.5-3.4-8.3-3.4H19.4c-2.7 0-6.3 1.5-8.2 3.4l-7.8 7.8c-2 2-3.4 5.5-3.4 8.2v11.1c0 2.7 1.5 6.3 3.4 8.2l7.8 7.8c1.9 1.9 5.5 3.4 8.2 3.4h11.1c2.7 0 6.3-1.5 8.2-3.4l7.8-7.8c1.9-1.9 3.4-5.5 3.4-8.2V19.4c.1-2.7-1.4-6.2-3.3-8.2zM46 30.5c0 1.7-1.1 4.2-2.2 5.4L36 43.7c-1.2 1.2-3.7 2.2-5.4 2.2H19.4c-1.7 0-4.2-1.1-5.4-2.2l-7.8-7.8C5 34.8 4 32.2 4 30.5V19.4c0-1.7 1.1-4.2 2.2-5.4L14 6.2C15.2 5 17.8 4 19.4 4h11.1c1.7 0 4.2 1.1 5.4 2.2l7.8 7.8c1.2 1.2 2.2 3.7 2.2 5.4v11.1zm-23.7-.9h5.3l2-18.9h-9.3l2 18.9z"/></symbol><symbol viewBox="-632.3 373.3 55 55" id="icon-lens"><path d="M-602 402.9c-1.5 1.7-3.7 2.7-6 2.7-.6 0-1 .4-1 1s.4 1 1 1c2.9 0 5.6-1.2 7.5-3.4.4-.4.3-1-.1-1.4-.4-.3-1.1-.3-1.4.1zm14.1 13.4l-9.6-9.6c2.1-2.5 3.4-5.7 3.4-9.2 0-7.7-6.3-14-14-14s-13.9 6.4-13.9 14.1c0 7.7 6.3 14 14 14 3.5 0 6.7-1.3 9.2-3.4l9.6 9.6c.2.2.5.3.7.3s.5-.1.7-.3c.3-.4.3-1.1-.1-1.5zm-20.1-6.7c-6.6 0-12-5.4-12-12s5.4-12 12-12 12 5.4 12 12-5.4 12-12 12z"/></symbol><symbol viewBox="-7 377 16 16" id="icon-login"><path d="M-7 393v-.9s0-.7.1-1.4c.2-1.1.5-1.9.9-2.4.5-.5 1.4-.8 2.2-1 .4-.1.8-.2 1.1-.3.3-.1.4-.2.5-.3v-.1c.1-.3 0-.6-.5-1.3-.2-.3-.5-.7-.7-1.2-.6-1.4-.7-2.9-.3-4.3.3-.9.9-1.6 1.7-2.1 1-.4 1.9-.7 3-.7s2 .2 2.8.7c.8.5 1.4 1.2 1.7 2.1.4 1.4.3 2.9-.3 4.3-.2.5-.4.8-.7 1.2-.4.7-.6 1-.5 1.3v.1c.1.1.2.2.5.3.3.1.7.2 1.1.3.8.2 1.7.5 2.2 1 .5.5.8 1.2.9 2.4.1.8.1 1.4.1 1.4v.9H-7zm2.3-3.5c-.1.1-.3.5-.4 1.4v.2l.3-.1h12v-.2c-.2-1.1-.4-1.3-.4-1.3-.2-.2-.7-.3-1.5-.5-1.1-.3-2.4-.6-2.8-1.7-.5-1.2.1-2.2.6-2.9.2-.3.4-.6.5-.9.4-1.1.5-2.1.2-3.1-.4-1.4-1.9-1.6-2.8-1.6s-2.3.2-2.8 1.6c-.3 1-.2 2 .2 3.1.1.3.3.6.5.9.5.8 1.1 1.7.6 2.9-.4 1-1.7 1.4-2.8 1.7-.7.2-1.2.3-1.4.5z"/></symbol><symbol viewBox="0 0 213.3 54.9" id="icon-logo"><path class="bast0" d="M199.7 23.5c1 0 2 .3 2.8.8l.9-2.4c-1-.5-2.4-.8-3.7-.8-3.7 0-6.1 2.3-6.1 5.9 0 3.8 2.4 5.9 6 5.9 1.3 0 2.8-.3 3.7-.8l-.6-2.5c-.8.6-1.9.9-3 .9-2 0-3.2-1.4-3.2-3.5 0-2.2 1.2-3.5 3.2-3.5zm-90.8 1.4c0-2.2-1.6-3.6-4.6-3.6h-4.5v11.3h2.9v-3.7l1.3-.1 2.3 3.8h3.2l-2.9-4.4c1.5-.6 2.3-1.8 2.3-3.3zm-4.8 1.9h-1.4v-3.2h1.2c1.4 0 2.1.5 2.1 1.5 0 1.1-.7 1.6-1.9 1.7zm81.6-5.5l-4 11.3h2.8l.8-2.4h4.2l.8 2.4h2.8l-3.9-11.3h-3.5zm.3 6.7l1.5-4.4 1.4 4.4H186zm-9-6.7h-4.2v11.3h2.9v-3.3h1.1c3.2 0 5-1.4 5-4.1 0-2.3-1.6-3.9-4.8-3.9zm-.2 5.8h-1.2v-3.5h1.2c1.4 0 2.2.6 2.2 1.7 0 1.2-.7 1.8-2.2 1.8zm36.5-3.5v-2.3h-8.2v11.3h8.2v-2.3h-5.4v-2.2h4.4v-2.3h-4.4v-2.2h5.4zm-102.3 9h8.2v-2.3h-5.4v-2.2h4.4v-2.3h-4.4v-2.2h5.4v-2.3H111v11.3zm56.4-6.8c-1.4-.4-2.4-.7-2.4-1.4 0-.6.5-1 1.5-1 1.1 0 2.5.4 3.6 1l.6-2.4c-1.1-.6-2.4-1-4.2-1-2.8 0-4.3 1.4-4.3 3.5 0 2.3 2 3 3.6 3.5 1.5.4 2.3.7 2.3 1.4s-.7 1.1-1.7 1.1c-1.4 0-2.7-.4-3.9-1l-.5 2.4c1 .6 2.7 1 4.3 1 3 0 4.6-1.5 4.6-3.7 0-2.1-1.8-2.9-3.5-3.4zm-11.1 0l-2.3-4.4h-3l3.9 7v4.3h2.8v-4.3l3.9-7h-3l-2.3 4.4zm-32-4.5l-4 11.3h2.8l.8-2.4h4.2l.8 2.4h2.8l-3.9-11.3h-3.5zm.2 6.7l1.5-4.4 1.4 4.4h-2.9zm15.5-4.3h3.6v8.9h2.9v-8.9h3.6v-2.4h-10v2.4zm-4.1-2.4H133v11.3h7.6v-2.4h-4.7v-8.9zM0 27.4l42.4 27.4 42.4-27.4L42.4 0 0 27.4zm42.4 21.9L8.6 27.4 42.4 5.6l33.8 21.9-33.8 21.8zm.8-13.8c-1.2-.3-2.1-.6-2.1-1.2 0-.5.4-.8 1.3-.8 1 0 2.2.4 3.2.9l.5-2.1c-1-.5-2.2-.9-3.7-.9-2.5 0-3.8 1.2-3.8 3.1 0 2 1.8 2.7 3.2 3.1 1.3.4 2 .6 2 1.3 0 .6-.6.9-1.5.9-1.2 0-2.4-.4-3.4-.9l-.5 2.1c.9.5 2.4.9 3.9.9 2.6 0 4.1-1.3 4.1-3.2s-1.7-2.8-3.2-3.2zm-4.7-13.2H41V19l1.2-.1 2 3.4h2.9l-2.6-4c1.3-.5 2-1.5 2-2.9 0-1.9-1.4-3.2-4-3.2h-4v10.1zm2.5-7.9h1.1c1.3 0 1.9.4 1.9 1.3 0 1-.6 1.4-1.7 1.5H41v-2.8zm-13.5 14h29.9v-2H27.5v2z"/></symbol><symbol viewBox="0 0 84.9 54.9" id="icon-logo--mob"><path d="M42.4 0L0 27.4l42.4 27.4 42.4-27.4L42.4 0zM8.6 27.4L42.4 5.6l33.8 21.9-33.8 21.8L8.6 27.4zm32.5-8.3l1.2-.1 2 3.4h2.9l-2.6-4c1.3-.5 2-1.5 2-2.9 0-1.9-1.4-3.2-4-3.2h-4v10h2.5v-3.2zm-.1-4.7h1.1c1.3 0 1.9.4 1.9 1.3 0 1-.6 1.4-1.7 1.5H41v-2.8zm2.2 21.1c-1.2-.3-2.1-.6-2.1-1.2 0-.5.4-.8 1.3-.8 1 0 2.2.4 3.2.9l.5-2.1c-1-.5-2.2-.9-3.7-.9-2.5 0-3.8 1.2-3.8 3.1 0 2 1.8 2.7 3.2 3.1 1.3.4 2 .6 2 1.3 0 .6-.6.9-1.5.9-1.2 0-2.4-.4-3.4-.9l-.5 2.1c.9.5 2.4.9 3.9.9 2.6 0 4.1-1.3 4.1-3.2s-1.7-2.8-3.2-3.2zm-15.7-9.1v2h29.9v-2H27.5z"/></symbol><symbol viewBox="0 0 22 16" id="icon-mail"><path d="M0 0v16h22V0H0zm11 8.7L3.6 2h14.8L11 8.7zM6.8 7.5l-4.8 5V3.2l4.8 4.3zm1.5 1.4l2.7 2.5 2.7-2.5 4.9 5.1H3.3l5-5.1zm6.9-1.4L20 3.2v9.3l-4.8-5z"/></symbol><symbol viewBox="0 0 34 47" id="icon-marker"><path fill="#0BA" d="M17 0C7.6 0 0 7.6 0 17s12.1 25.1 17 30c4.5-4.5 17-20.6 17-30 0-9.4-7.6-17-17-17zm0 23c-3 0-5.5-2.5-5.5-5.5S14 12 17 12s5.5 2.5 5.5 5.5S20 23 17 23z"/><linearGradient id="bda" gradientUnits="userSpaceOnUse" x1="8.5" x2="8.5" y2="47"><stop offset="0" stop-color="#00D9C8"/><stop offset="1" stop-color="#00937D"/></linearGradient><path fill="url(#bda)" d="M11.5 17.5c0-3 2.5-5.5 5.5-5.5V0C7.6 0 0 7.6 0 17s12.1 25.1 17 30V23c-3 0-5.5-2.5-5.5-5.5z"/><linearGradient id="bdb" gradientUnits="userSpaceOnUse" x1="17" y1="28" x2="17" y2="7"><stop offset="0" stop-color="#00D9C8"/><stop offset="1" stop-color="#00937D"/></linearGradient><path fill="url(#bdb)" d="M17 7C11.2 7 6.5 11.7 6.5 17.5S11.2 28 17 28s10.5-4.7 10.5-10.5S22.8 7 17 7zm0 16c-3 0-5.5-2.5-5.5-5.5S14 12 17 12s5.5 2.5 5.5 5.5S20 23 17 23z"/></symbol><symbol viewBox="0 0 34 47" id="icon-marker-white"><path fill="#f6f6f6" d="M17 0C7.6 0 0 7.6 0 17s12.1 25.1 17 30c4.5-4.5 17-20.6 17-30 0-9.4-7.6-17-17-17zm0 23c-3 0-5.5-2.5-5.5-5.5S14 12 17 12s5.5 2.5 5.5 5.5S20 23 17 23z"/><linearGradient id="bea" gradientUnits="userSpaceOnUse" x1="8.5" x2="8.5" y2="47"><stop offset="0" stop-color="#f6f6f6"/><stop offset="1" stop-color="#d0d0d0"/></linearGradient><path fill="url(#bea)" d="M11.5 17.5c0-3 2.5-5.5 5.5-5.5V0C7.6 0 0 7.6 0 17s12.1 25.1 17 30V23c-3 0-5.5-2.5-5.5-5.5z"/><linearGradient id="beb" gradientUnits="userSpaceOnUse" x1="17" y1="28" x2="17" y2="7"><stop offset="0" stop-color="#f6f6f6"/><stop offset="1" stop-color="#d0d0d0"/></linearGradient><path fill="url(#beb)" d="M17 7C11.2 7 6.5 11.7 6.5 17.5S11.2 28 17 28s10.5-4.7 10.5-10.5S22.8 7 17 7zm0 16c-3 0-5.5-2.5-5.5-5.5S14 12 17 12s5.5 2.5 5.5 5.5S20 23 17 23z"/></symbol><symbol preserveAspectRatio="xMidYMid" viewBox="0 0 30 30" id="icon-menu"><path class="bfcls-1" d="M1 21h28v3H1zm0-7h28v3H1zm0-7h28v3H1z"/></symbol><symbol preserveAspectRatio="xMidYMid" viewBox="0 0 30 30" id="icon-menu-close"><path d="M6.162 4.54l19.8 19.798-2.122 2.12L4.04 6.66l2.122-2.12z" class="bgcls-1"/><path d="M4.04 24.338l19.798-19.8L25.96 6.66l-19.8 19.8-2.12-2.12z" class="bgcls-1"/></symbol><symbol viewBox="0 0 14 14" id="icon-money"><path d="M12.3 5.5c.1-.3.2-.6.2-1 0-2-2.4-3.5-5.5-3.5S1.5 2.6 1.5 4.5c0 .4.1.7.2 1-.1.3-.2.7-.2 1 0 .4.1.7.2 1-.1.3-.2.7-.2 1 0 2 2.4 3.5 5.5 3.5s5.5-1.5 5.5-3.5c0-.3-.1-.7-.2-1 .1-.3.2-.6.2-1 0-.3-.1-.6-.2-1zM7 8c1.9 0 3.5-.6 4.5-1.5C11.5 7.9 9.4 9 7 9S2.5 7.9 2.5 6.6C3.5 7.5 5.1 8 7 8zm0-6c2.4 0 4.5 1.1 4.5 2.5S9.4 7 7 7 2.5 5.9 2.5 4.5 4.6 2 7 2zm0 9c-2.4 0-4.5-1.1-4.5-2.5 1 1 2.6 1.5 4.5 1.5s3.5-.6 4.5-1.5C11.5 9.9 9.4 11 7 11z"/></symbol><symbol viewBox="-612.3 373.5 55 55" id="icon-money-save"><path d="M-574.5 384c-4.6 0-8.8 1.9-11.9 4.9-1.8-.3-3.7-.4-5.6-.4-6.3-.1-12.9 1.5-13.1 4.4-.1.2-.1.8 0 3.2-3.7.7-6.6 2-6.7 3.9-.1.3-.1.9 0 3.6v.4c0 2 2.9 3.3 6.7 4 0 .5 0 1.3.1 2.6v.4c0 3 6.8 4.6 13.1 4.6 2.6 0 5.3-.3 7.6-.8-.1 0-.1-.1-.2-.1 2.8 2.1 6.3 3.4 10.1 3.4 9.4 0 17-7.6 17-17s-7.8-17.1-17.1-17.1zm-17.5 5.4c1.7 0 3.4.1 4.8.3l.1-.1c-1.8 2-3.1 4.4-3.8 7v-.1h-1.1c-7.1 0-12.1-1.9-12.1-3.6 0-1.6 4.9-3.5 12.1-3.5zm0 8.2h.9c-.2.9-.3 1.9-.3 2.9h-.5c-7.1 0-12.1-1.9-12.1-3.6v-2.1c1.9 1.8 7 2.8 12 2.8zm-13.1-.6c.2 2.9 6.8 4.4 13.1 4.4h.5c0 .5 0 .9.1 1.4-2 .5-4.5.8-7.4.8-7.1 0-12.1-1.9-12.1-3.6 0-1.1 2.2-2.3 5.8-3zm-5.8 6.9v-2.1c2.1 1.8 7.2 2.8 12.2 2.8 2.6 0 5.3-.3 7.6-.8.2 1 .4 1.9.7 2.8v-.1c-2.1.6-4.9 1-8.2 1-7.4 0-12.3-1.9-12.3-3.6zm20.7 3.5c.4 1.1 1 2.1 1.7 3.1-1.1.1-2.3.2-3.4.2-5.6 0-9.8-1.1-11.4-2.5 1.5.2 3.1.3 4.6.3 2.9 0 6-.4 8.5-1.1zm-1.8 7.2c-7.1 0-12.1-1.9-12.1-3.6v-2.1c2.1 1.8 7.2 2.8 12.2 2.8 1.4 0 2.8-.1 4.1-.2.7.9 1.5 1.8 2.4 2.5-1.9.3-4.2.6-6.6.6zm17.5 1.4c-8.3 0-15-6.7-15-15s6.7-15 15-15 15 6.7 15 15-6.8 15-15 15zm2.2-15c-.4-.3-.9-.6-1.3-.8-.5-.2-.9-.4-1.3-.7-.4-.2-.7-.5-1-.8-.3-.3-.4-.7-.4-1.2 0-.6.2-1 .5-1.4.4-.3.8-.5 1.4-.5.5 0 1 .1 1.3.3.3.2.7.5 1.1.8l.9-1c-.4-.4-.8-.7-1.2-1-.4-.3-1-.4-1.6-.5v-2h-1.2v2c-.9.1-1.6.5-2.1 1.1-.5.6-.8 1.3-.8 2.2 0 .6.1 1.2.4 1.6.3.4.6.8 1 1.1.4.3.9.5 1.3.8.5.2.9.5 1.3.7.4.2.7.6 1 .9.3.3.4.8.4 1.3 0 .6-.2 1.1-.5 1.5-.4.4-.9.6-1.6.6-.6 0-1.2-.1-1.7-.4-.5-.3-1-.6-1.4-.9l-.7 1.1c.4.4.9.7 1.5 1 .6.3 1.2.5 1.8.5v2h1.2v-2c.9-.1 1.7-.5 2.2-1.1.5-.6.8-1.4.8-2.3 0-.7-.1-1.3-.4-1.7-.3-.4-.4-.9-.9-1.2z"/></symbol><symbol viewBox="0 0 18 18" id="icon-muted"><path d="M9.214 2c-.11 0-.225.032-.334.1L4.832 4.91C4.75 4.97 4.65 5 4.55 5H.995C.445 5 0 5.448 0 6v6c0 .552.446 1 .996 1H4.55c.1 0 .2.03.282.09L8.88 15.9c.11.068.223.1.334.1.392 0 .747-.4.747-.95V2.95c0-.55-.353-.95-.745-.95zM7.97 12.834l-2.39-1.657c-.166-.115-.364-.178-.566-.178H2.49c-.274 0-.497-.226-.497-.5v-3c0-.278.223-.5.498-.5h2.527c.202 0 .4-.064.566-.18L7.97 5.164v7.67zM14.934 8.8c-.086-1.75-1.514-2.992-2.507-3.65-.47-.312-1.094-.122-1.325.408l-.038.086c-.188.43-.045.94.336 1.194.706.473 1.586 1.247 1.624 2.065.032.676-.553 1.468-1.663 2.27-.396.288-.527.84-.283 1.275l.042.075c.265.475.865.624 1.3.312 1.74-1.25 2.585-2.606 2.515-4.037z"/><path d="M13.957 9.2c.086 1.747 1.514 2.99 2.507 3.648.47.312 1.094.122 1.325-.408l.036-.086c.188-.43.045-.94-.336-1.194-.705-.473-1.585-1.247-1.623-2.065-.032-.676.553-1.468 1.663-2.27.398-.288.53-.84.285-1.275l-.042-.075c-.266-.475-.866-.624-1.3-.312-1.74 1.25-2.586 2.606-2.516 4.037z"/></symbol><symbol viewBox="0 0 42 33" id="icon-noitems"><path d="M38.5 0h-35C1.6 0 0 1.6 0 3.5v26C0 31.4 1.6 33 3.5 33h35c1.9 0 3.5-1.6 3.5-3.5v-26C42 1.6 40.4 0 38.5 0zm.5 29.5c0 .3-.2.5-.5.5h-35c-.3 0-.5-.2-.5-.5v-26c0-.3.2-.5.5-.5h35c.3 0 .5.2.5.5v26zM7 10h27V7H7v3zm0 6h27v-3H7v3zm0 6h18v-3H7v3z"/></symbol><symbol viewBox="0 0 18 18" id="icon-pause"><path d="M2 4v10c0 2 2 2 2 2h2s2 0 2-2V4c0-2-2-2-2-2H4S2 2 2 4zm2 0h2v10H4V4zm6 0v10c0 2 2 2 2 2h2s2 0 2-2V4c0-2-2-2-2-2h-2s-2 0-2 2zm2 0h2v10h-2V4z"/></symbol><symbol viewBox="0 0 14 14" id="icon-phone"><path d="M10.922 14.004c-.167 0-.33-.01-.487-.033-.156-.02-.338-.06-.543-.116-.213-.06-.37-.108-.474-.145-.108-.04-.304-.11-.586-.217-.297-.112-.48-.178-.546-.2-.65-.233-1.245-.515-1.76-.835-.876-.54-1.797-1.293-2.74-2.235-.94-.94-1.692-1.863-2.232-2.737C1.232 6.968.95 6.372.714 5.71c-.02-.052-.084-.234-.196-.53L.3 4.59c-.035-.1-.082-.26-.143-.472C.1 3.914.06 3.732.037 3.575c-.02-.158-.03-.322-.03-.488 0-.562.16-1.144.48-1.73C.94.533 1.24.34 1.35.293c.155-.068.368-.133.644-.196.32-.074.512-.092.618-.093.053.07.152.225.31.54.093.163.198.352.33.597.138.254.264.483.38.69.117.207.23.404.34.587l.016.025.016.022c.02.027.08.11.177.252.11.157.163.252.188.305l.014.036c-.017.03-.058.09-.145.183-.182.19-.382.37-.595.527-.26.194-.503.402-.723.617-.204.2-.473.51-.473.89 0 .134.03.276.088.436.045.122.084.214.115.276.03.06.087.16.175.302l.11.18C3.5 7.49 4.16 8.38 4.895 9.115c.735.735 1.626 1.395 2.647 1.96l.18.11c.143.09.244.147.302.176.063.034.155.073.277.117.16.06.3.09.434.09.383 0 .692-.27.89-.474.22-.222.427-.465.62-.723.158-.214.336-.414.526-.595.09-.087.15-.13.183-.147.01.002.02.007.034.014.052.025.148.078.306.187.14.095.224.153.25.173l.024.018.024.015c.186.11.38.224.59.34.206.116.436.243.688.38.246.133.434.238.567.315.338.17.498.274.57.327 0 .107-.02.297-.093.62-.062.274-.127.488-.19.634-.05.118-.245.42-1.07.877-.584.316-1.166.478-1.728.478z" class="bmcls-1"/></symbol><symbol viewBox="0 0 18 18" id="icon-play"><path d="M5 4.914L11.915 9 5 13.086V4.914zM4 2c-.552 0-1 .448-1 1v12c0 .552.448 1 1 1l10.57-6.246c.266-.158.43-.444.43-.754s-.164-.597-.43-.754L4 2z"/></symbol><symbol viewBox="0 0 18 18" id="icon-restart"><path d="M1 2c.552 0 1 .448 1 1v4.318L11 2c.552 0 1 .448 1 1v1.954L17 2c.552 0 1 .448 1 1v12c0 .552-.448 1-1 1l-5-2.955V15c0 .552-.448 1-1 1l-9-5.318V15c0 .552-.448 1-1 1s-1-.448-1-1V3c0-.552.448-1 1-1zm11 8.722l4 2.364V4.914l-4 2.364v3.444zm-2 2.364V4.914L3.085 9 10 13.086z"/></symbol><symbol viewBox="0 0 18 21" id="icon-rewind"><path d="M.43 10.754L11 17c.552 0 1-.448 1-1v-1.954L17 17c.552 0 1-.448 1-1V4c0-.552-.448-1-1-1l-5 2.955V4c0-.552-.448-1-1-1L.43 9.246C.165 9.404 0 9.69 0 10s.164.597.43.754zM12 8.278l4-2.364v8.172l-4-2.364V8.278zm-2-2.364v8.172L3.085 10 10 5.914z"/></symbol><symbol viewBox="0 0 40 40" id="icon-sales"><path d="M22.2 24.9c-.4-.3-.9-.6-1.3-.8-.5-.2-.9-.4-1.3-.7-.4-.2-.7-.5-1-.8-.3-.3-.4-.7-.4-1.2 0-.6.2-1 .5-1.4.4-.3.8-.5 1.4-.5.5 0 1 .1 1.3.3s.7.5 1.1.8l.9-1c-.4-.4-.5-.7-1-1-.4-.3-1.4-.4-1.4-.5V16h-2v2.2c0 .1-1.4.5-1.9 1.1-.5.6-.7 1.3-.7 2.2 0 .6.2 1.2.5 1.6.3.4.6.8 1 1.1.4.3.9.5 1.3.8.5.2.9.5 1.3.7s.7.6 1 .9c.3.3.4.8.4 1.3 0 .6-.2 1.1-.5 1.5-.4.4-.9.6-1.6.6-.6 0-1.2-.1-1.7-.4-.5-.3-1-.6-1.4-.9l-.7 1c.4.4.7.7 1.3 1s1.6.5 1.6.5V33h2v-1.8c1-.1 1.5-.5 2-1.1.5-.6.7-1.4.7-2.3 0-.7-.2-1.3-.5-1.7-.1-.6-.5-.9-.9-1.2zm8.6-8.5l-9.7-6.8L28.4 1H11.6l7.3 8.6-9.7 6.8-4.3 14.2L8.7 39h22.6l3.8-8.4-4.3-14.2zM15.9 3h8.2L20 7.8 15.9 3zM30 37H10l-2.9-6.5L11 17.6l9.1-6.4 9.1 6.4 3.9 12.9L30 37z"/></symbol><symbol viewBox="0 0 40 40" id="icon-transactions"><path d="M28 10V3H12v7H1v27h38V10H28zM14 5h12v5H14V5zm23 7v7H3v-7h34zm-19 9h4v4h-4v-4zM3 35V21h13v6h8v-6h13v14H3z"/></symbol><symbol viewBox="-7 377 16 16" id="icon-user"><path d="M-7 393v-.9s0-.7.1-1.4c.2-1.1.5-1.9.9-2.4.5-.5 1.4-.8 2.2-1 .4-.1.8-.2 1.1-.3.3-.1.4-.2.5-.3v-.1c.1-.3 0-.6-.5-1.3-.2-.3-.5-.7-.7-1.2-.6-1.4-.7-2.9-.3-4.3.3-.9.9-1.6 1.7-2.1 1-.4 1.9-.7 3-.7s2 .2 2.8.7c.8.5 1.4 1.2 1.7 2.1.4 1.4.3 2.9-.3 4.3-.2.5-.4.8-.7 1.2-.4.7-.6 1-.5 1.3v.1c.1.1.2.2.5.3.3.1.7.2 1.1.3.8.2 1.7.5 2.2 1 .5.5.8 1.2.9 2.4.1.8.1 1.4.1 1.4v.9H-7zm2.3-3.5c-.1.1-.3.5-.4 1.4v.2l.3-.1h12v-.2c-.2-1.1-.4-1.3-.4-1.3-.2-.2-.7-.3-1.5-.5-1.1-.3-2.4-.6-2.8-1.7-.5-1.2.1-2.2.6-2.9.2-.3.4-.6.5-.9.4-1.1.5-2.1.2-3.1-.4-1.4-1.9-1.6-2.8-1.6s-2.3.2-2.8 1.6c-.3 1-.2 2 .2 3.1.1.3.3.6.5.9.5.8 1.1 1.7.6 2.9-.4 1-1.7 1.4-2.8 1.7-.7.2-1.2.3-1.4.5z"/></symbol><symbol viewBox="0 0 40 40" id="icon-valid"><path d="M24.7 10.3c-.4-.4-1-.4-1.4 0l-4 4c-.4.4-.4 1 0 1.4.4.4 1 .4 1.4 0l2.3-2.3c.3 2.8-.5 5.7-2.3 8-2 2.6-5 4.1-8 4.1-.6 0-1 .4-1 1s.4 1 1 1c3.6 0 7.2-1.8 9.6-4.9 2.1-2.7 3-5.9 2.7-9.2l2.3 2.3c.2.2.5.3.7.3.3 0 .5-.1.7-.3.4-.4.4-1 0-1.4l-4-4zM40 20C40 9 31 0 20 0S0 9 0 20s8.9 20 20 20c4 0 7.7-1.2 10.8-3.1 3.7 1 8.2 2.1 8.2 2.1s-1-4-2.1-8.3C38.8 27.6 40 24 40 20zm-8.7 14.9c-.2 0-.4-.1-.5-.1-.4 0-.8.1-1.1.3C26.8 37 23.4 38 20 38c-9.9 0-18-8.1-18-18S10.1 2 20 2s18 8.1 18 18c0 3.4-1 6.8-2.8 9.7-.3.5-.4 1.1-.2 1.6.5 1.8.9 3.5 1.3 5-1.6-.4-3.4-.9-5-1.4z"/></symbol><symbol viewBox="0 0 18 18" id="icon-volume"><path d="M10.214 2c-.11 0-.225.032-.334.1L5.832 4.91C5.75 4.97 5.65 5 5.55 5H1.995C1.445 5 1 5.448 1 6v6c0 .552.446 1 .996 1H5.55c.1 0 .2.03.282.09L9.88 15.9c.11.068.223.1.334.1.392 0 .747-.4.747-.95V2.95c0-.55-.353-.95-.745-.95zM8.97 12.834l-2.39-1.657c-.166-.115-.364-.178-.566-.178H3.49c-.274 0-.497-.226-.497-.5v-3c0-.278.223-.5.498-.5h2.527c.202 0 .4-.064.566-.18L8.97 5.164v7.67zM16.934 8.8c-.086-1.75-1.514-2.992-2.507-3.65-.47-.312-1.094-.122-1.325.408l-.038.086c-.188.43-.045.94.336 1.194.706.473 1.586 1.247 1.624 2.065.032.676-.553 1.468-1.663 2.27-.396.288-.527.84-.283 1.275l.042.075c.265.475.865.624 1.3.312 1.74-1.25 2.585-2.606 2.515-4.037z"/></symbol><symbol viewBox="0 0 17 22" id="icon-window"><path d="M0 0v22h17V0H0zm15 2v2H2V2h13zM2 10V8h13v2H2zm0-3V5h13v2H2zm0 13v-8h6v2H7v3h3v-3H9v-2h6v8H2z"/></symbol><symbol viewBox="0 0 17 31" id="slider-handle"><linearGradient id="bwa" gradientUnits="userSpaceOnUse" x1="8.5" y1="31" x2="8.5" y2="8"><stop offset="0" stop-color="#E4E4E4" stop-opacity="0"/><stop offset="1" stop-color="#E4E4E4"/></linearGradient><path fill="url(#bwa)" d="M0 8h17v23H0z"/><linearGradient id="bwb" gradientUnits="userSpaceOnUse" x1="8.5" y1=".5" x2="8.5" y2="16.5"><stop offset="0" stop-color="#FFF"/><stop offset="1" stop-color="#ECECEC"/></linearGradient><path fill="url(#bwb)" d="M8.5 16.5c-4.4 0-8-3.6-8-8s3.6-8 8-8 8 3.6 8 8-3.6 8-8 8z"/><path fill="#CACACA" d="M8.5 1C12.6 1 16 4.4 16 8.5S12.6 16 8.5 16 1 12.6 1 8.5 4.4 1 8.5 1m0-1C3.8 0 0 3.8 0 8.5S3.8 17 8.5 17 17 13.2 17 8.5 13.2 0 8.5 0z"/><path fill="#CBCBCB" d="M6 6h1v5H6zm2 0h1v5H8zm2 0h1v5h-1z"/></symbol><symbol viewBox="0 0 17 17" id="slider-handle-2"><linearGradient id="bxa" gradientUnits="userSpaceOnUse" x1="8.5" y1=".5" x2="8.5" y2="16.5"><stop offset="0" stop-color="#FFF"/><stop offset="1" stop-color="#ECECEC"/></linearGradient><path fill="url(#bxa)" d="M8.5 16.5c-4.4 0-8-3.6-8-8s3.6-8 8-8 8 3.6 8 8-3.6 8-8 8z"/><path fill="#CACACA" d="M8.5 1C12.6 1 16 4.4 16 8.5S12.6 16 8.5 16 1 12.6 1 8.5 4.4 1 8.5 1m0-1C3.8 0 0 3.8 0 8.5S3.8 17 8.5 17 17 13.2 17 8.5 13.2 0 8.5 0z"/><path fill="#CBCBCB" d="M6 6h1v5H6zm2 0h1v5H8zm2 0h1v5h-1z"/></symbol></svg>