<svg xmlns="http://www.w3.org/2000/svg" viewBox="0 0 40 40" enable-background="new 0 0 40 40"><path d="M32.7 24l-.1.8s-.3 1.7-3.2 1.7c-2.8 0-3.2-1.5-3.2-1.7l-.3-.8H23v-5h-6.3l-.2.7c0 .1-.8 2.7-4.4 2.7s-4.3-2.6-4.3-2.7l-.1-.7H2v20h36V24h-5.3zM21 37H4V21h2.2c.7 1 2.5 3.4 6 3.4s5.3-2.4 6-3.4H21v16zm15 0H23V26h1.4c.6 1 2 2.5 4.9 2.5 2.9 0 4.3-1.5 4.9-2.5H36v11zm-6.7-14.8c3.3 0 6-2.7 6-6s-2.7-6-6-6-6 2.7-6 6 2.7 6 6 6zm0-10c2.2 0 4 1.8 4 4s-1.8 4-4 4-4-1.8-4-4 1.8-4 4-4zM12.2 17c4.4 0 8-3.6 8-8s-3.6-8-8-8-8 3.6-8 8 3.6 8 8 8zm0-14c3.3 0 6 2.7 6 6s-2.7 6-6 6-6-2.7-6-6 2.7-6 6-6z"/></svg>