<svg xmlns="http://www.w3.org/2000/svg" viewBox="0 0 84.9 54.9" enable-background="new 0 0 84.9 54.9"><path d="M42.4 0L0 27.4l42.4 27.4 42.4-27.4L42.4 0zM8.6 27.4L42.4 5.6l33.8 21.9-33.8 21.8L8.6 27.4zm32.5-8.3l1.2-.1 2 3.4h2.9l-2.6-4c1.3-.5 2-1.5 2-2.9 0-1.9-1.4-3.2-4-3.2h-4v10h2.5v-3.2zm-.1-4.7h1.1c1.3 0 1.9.4 1.9 1.3 0 1-.6 1.4-1.7 1.5H41v-2.8zm2.2 21.1c-1.2-.3-2.1-.6-2.1-1.2 0-.5.4-.8 1.3-.8 1 0 2.2.4 3.2.9l.5-2.1c-1-.5-2.2-.9-3.7-.9-2.5 0-3.8 1.2-3.8 3.1 0 2 1.8 2.7 3.2 3.1 1.3.4 2 .6 2 1.3 0 .6-.6.9-1.5.9-1.2 0-2.4-.4-3.4-.9l-.5 2.1c.9.5 2.4.9 3.9.9 2.6 0 4.1-1.3 4.1-3.2s-1.7-2.8-3.2-3.2zm-15.7-9.1v2h29.9v-2H27.5z"/></svg>