<svg viewBox="0 0 50 50" xmlns="http://www.w3.org/2000/svg"><path d="M25 32.3c-2.4 0-4.3 1.9-4.3 4.3s1.9 4.3 4.3 4.3 4.3-1.9 4.3-4.3-1.9-4.3-4.3-4.3zm21.6-21.1l-7.8-7.8c-2-1.9-5.5-3.4-8.3-3.4H19.4c-2.7 0-6.3 1.5-8.2 3.4l-7.8 7.8c-2 2-3.4 5.5-3.4 8.2v11.1c0 2.7 1.5 6.3 3.4 8.2l7.8 7.8c1.9 1.9 5.5 3.4 8.2 3.4h11.1c2.7 0 6.3-1.5 8.2-3.4l7.8-7.8c1.9-1.9 3.4-5.5 3.4-8.2V19.4c.1-2.7-1.4-6.2-3.3-8.2zM46 30.5c0 1.7-1.1 4.2-2.2 5.4L36 43.7c-1.2 1.2-3.7 2.2-5.4 2.2H19.4c-1.7 0-4.2-1.1-5.4-2.2l-7.8-7.8C5 34.8 4 32.2 4 30.5V19.4c0-1.7 1.1-4.2 2.2-5.4L14 6.2C15.2 5 17.8 4 19.4 4h11.1c1.7 0 4.2 1.1 5.4 2.2l7.8 7.8c1.2 1.2 2.2 3.7 2.2 5.4v11.1zm-23.7-.9h5.3l2-18.9h-9.3l2 18.9z"/></svg>