<svg xmlns="http://www.w3.org/2000/svg" viewBox="-7 377 16 16" enable-background="new -7 377 16 16"><path d="M-7 393v-.9s0-.7.1-1.4c.2-1.1.5-1.9.9-2.4.5-.5 1.4-.8 2.2-1 .4-.1.8-.2 1.1-.3.3-.1.4-.2.5-.3v-.1c.1-.3 0-.6-.5-1.3-.2-.3-.5-.7-.7-1.2-.6-1.4-.7-2.9-.3-4.3.3-.9.9-1.6 1.7-2.1 1-.4 1.9-.7 3-.7s2 .2 2.8.7c.8.5 1.4 1.2 1.7 2.1.4 1.4.3 2.9-.3 4.3-.2.5-.4.8-.7 1.2-.4.7-.6 1-.5 1.3v.1c.1.1.2.2.5.3.3.1.7.2 1.1.3.8.2 1.7.5 2.2 1 .5.5.8 1.2.9 2.4.1.8.1 1.4.1 1.4v.9H-7zm2.3-3.5c-.1.1-.3.5-.4 1.4v.2l.3-.1h12v-.2c-.2-1.1-.4-1.3-.4-1.3-.2-.2-.7-.3-1.5-.5-1.1-.3-2.4-.6-2.8-1.7-.5-1.2.1-2.2.6-2.9.2-.3.4-.6.5-.9.4-1.1.5-2.1.2-3.1-.4-1.4-1.9-1.6-2.8-1.6s-2.3.2-2.8 1.6c-.3 1-.2 2 .2 3.1.1.3.3.6.5.9.5.8 1.1 1.7.6 2.9-.4 1-1.7 1.4-2.8 1.7-.7.2-1.2.3-1.4.5z"/></svg>