<svg xmlns="http://www.w3.org/2000/svg" viewBox="-612.3 373.5 55 55" enable-background="new -612.3 373.5 55 55"><path d="M-574.5 384c-4.6 0-8.8 1.9-11.9 4.9-1.8-.3-3.7-.4-5.6-.4-6.3-.1-12.9 1.5-13.1 4.4-.1.2-.1.8 0 3.2-3.7.7-6.6 2-6.7 3.9-.1.3-.1.9 0 3.6v.4c0 2 2.9 3.3 6.7 4 0 .5 0 1.3.1 2.6v.4c0 3 6.8 4.6 13.1 4.6 2.6 0 5.3-.3 7.6-.8-.1 0-.1-.1-.2-.1 2.8 2.1 6.3 3.4 10.1 3.4 9.4 0 17-7.6 17-17s-7.8-17.1-17.1-17.1zm-17.5 5.4c1.7 0 3.4.1 4.8.3l.1-.1c-1.8 2-3.1 4.4-3.8 7v-.1h-1.1c-7.1 0-12.1-1.9-12.1-3.6 0-1.6 4.9-3.5 12.1-3.5zm0 8.2h.9c-.2.9-.3 1.9-.3 2.9h-.5c-7.1 0-12.1-1.9-12.1-3.6v-2.1c1.9 1.8 7 2.8 12 2.8zm-13.1-.6c.2 2.9 6.8 4.4 13.1 4.4h.5c0 .5 0 .9.1 1.4-2 .5-4.5.8-7.4.8-7.1 0-12.1-1.9-12.1-3.6 0-1.1 2.2-2.3 5.8-3zm-5.8 6.9v-2.1c2.1 1.8 7.2 2.8 12.2 2.8 2.6 0 5.3-.3 7.6-.8.2 1 .4 1.9.7 2.8v-.1c-2.1.6-4.9 1-8.2 1-7.4 0-12.3-1.9-12.3-3.6zm20.7 3.5c.4 1.1 1 2.1 1.7 3.1-1.1.1-2.3.2-3.4.2-5.6 0-9.8-1.1-11.4-2.5 1.5.2 3.1.3 4.6.3 2.9 0 6-.4 8.5-1.1zm-1.8 7.2c-7.1 0-12.1-1.9-12.1-3.6v-2.1c2.1 1.8 7.2 2.8 12.2 2.8 1.4 0 2.8-.1 4.1-.2.7.9 1.5 1.8 2.4 2.5-1.9.3-4.2.6-6.6.6zm17.5 1.4c-8.3 0-15-6.7-15-15s6.7-15 15-15 15 6.7 15 15-6.8 15-15 15zm2.2-15c-.4-.3-.9-.6-1.3-.8-.5-.2-.9-.4-1.3-.7-.4-.2-.7-.5-1-.8-.3-.3-.4-.7-.4-1.2 0-.6.2-1 .5-1.4.4-.3.8-.5 1.4-.5.5 0 1 .1 1.3.3.3.2.7.5 1.1.8l.9-1c-.4-.4-.8-.7-1.2-1-.4-.3-1-.4-1.6-.5v-2h-1.2v2c-.9.1-1.6.5-2.1 1.1-.5.6-.8 1.3-.8 2.2 0 .6.1 1.2.4 1.6.3.4.6.8 1 1.1.4.3.9.5 1.3.8.5.2.9.5 1.3.7.4.2.7.6 1 .9.3.3.4.8.4 1.3 0 .6-.2 1.1-.5 1.5-.4.4-.9.6-1.6.6-.6 0-1.2-.1-1.7-.4-.5-.3-1-.6-1.4-.9l-.7 1.1c.4.4.9.7 1.5 1 .6.3 1.2.5 1.8.5v2h1.2v-2c.9-.1 1.7-.5 2.2-1.1.5-.6.8-1.4.8-2.3 0-.7-.1-1.3-.4-1.7-.3-.4-.4-.9-.9-1.2z"/></svg>