<svg xmlns="http://www.w3.org/2000/svg" viewBox="-618.5 373.5 55 55" enable-background="new -618.5 373.5 55 55"><path d="M-591 388.5c-6.6 0-12 5.4-12 12s5.4 12 12 12 12-5.4 12-12-5.4-12-12-12zm0 22c-5.5 0-10-4.5-10-10s4.5-10 10-10 10 4.5 10 10-4.5 10-10 10zm11.7-20.2c.3 0 .5-.1.7-.3l4.6-4.6c.4-.4.4-1 0-1.4s-1-.4-1.4 0l-4.6 4.6c-.4.4-.4 1 0 1.4.2.2.4.3.7.3zm11.3 9.7h-6.5c-.6 0-1 .4-1 1s.4 1 1 1h6.5c.6 0 1-.4 1-1s-.4-1-1-1zm-10.6 12c-.4-.4-1-.4-1.4 0s-.4 1 0 1.4l4.6 4.6c.2.2.5.3.7.3s.5-.1.7-.3c.4-.4.4-1 0-1.4l-4.6-4.6zm-12.4 4.5c-.6 0-1 .4-1 1v6.5c0 .6.4 1 1 1s1-.4 1-1v-6.5c0-.5-.4-1-1-1zm-12.4-4.5l-4.6 4.6c-.4.4-.4 1 0 1.4.2.2.5.3.7.3s.5-.1.7-.3l4.6-4.6c.4-.4.4-1 0-1.4s-1-.4-1.4 0zm-3.1-11c0-.6-.4-1-1-1h-6.5c-.6 0-1 .4-1 1s.4 1 1 1h6.5c.5 0 1-.4 1-1zm3.1-11c.2.2.5.3.7.3s.5-.1.7-.3c.4-.4.4-1 0-1.4l-4.6-4.6c-.3-.4-1-.4-1.4 0s-.4 1 0 1.4l4.6 4.6zm12.4-4.5c.6 0 1-.4 1-1V378c0-.6-.4-1-1-1s-1 .4-1 1v6.5c0 .5.4 1 1 1z"/></svg>