<svg xmlns="http://www.w3.org/2000/svg" viewBox="0 0 17 17" enable-background="new 0 0 17 17"><linearGradient id="a" gradientUnits="userSpaceOnUse" x1="8.5" y1=".5" x2="8.5" y2="16.5"><stop offset="0" stop-color="#fff"/><stop offset="1" stop-color="#ECECEC"/></linearGradient><path fill="url(#a)" d="M8.5 16.5c-4.4 0-8-3.6-8-8s3.6-8 8-8 8 3.6 8 8-3.6 8-8 8z"/><path fill="#CACACA" d="M8.5 1C12.6 1 16 4.4 16 8.5S12.6 16 8.5 16 1 12.6 1 8.5 4.4 1 8.5 1m0-1C3.8 0 0 3.8 0 8.5S3.8 17 8.5 17 17 13.2 17 8.5 13.2 0 8.5 0z"/><path fill="#CBCBCB" d="M6 6h1v5H6zM8 6h1v5H8zM10 6h1v5h-1z"/></svg>